<?xml version="1.0" standalone="no"?>
<!DOCTYPE svg PUBLIC "-//W3C//DTD SVG 20010904//EN"
 "http://www.w3.org/TR/2001/REC-SVG-20010904/DTD/svg10.dtd">
<svg version="1.0" xmlns="http://www.w3.org/2000/svg"
 width="64.000000pt" height="64.000000pt" viewBox="0 0 64.000000 64.000000"
 preserveAspectRatio="xMidYMid meet">

<g transform="translate(0.000000,64.000000) scale(0.100000,-0.100000)"
fill="#000000" stroke="none">
<path d="M40 365 l0 -165 180 0 c153 0 180 2 180 15 0 13 -25 15 -165 15
l-166 0 3 103 3 102 205 0 205 0 3 -57 c2 -43 7 -58 17 -58 12 0 15 20 15 105
l0 105 -240 0 -240 0 0 -165z m229 126 c7 -5 10 -14 7 -20 -10 -15 -192 -15
-202 0 -12 20 19 29 101 29 44 0 86 -4 94 -9z m125 3 c25 -10 19 -34 -9 -34
-24 0 -34 18 -18 33 8 8 8 8 27 1z m85 -7 c13 -16 5 -27 -20 -27 -24 0 -35 20
-18 31 19 12 25 11 38 -4z"/>
<path d="M367 326 c-4 -10 -1 -13 8 -9 8 3 12 9 9 14 -7 12 -11 11 -17 -5z"/>
<path d="M485 271 c8 -14 -6 -41 -22 -41 -8 0 -11 -4 -8 -10 3 -5 15 -10 26
-10 27 0 24 -19 -5 -30 -13 -5 -27 -14 -32 -21 -4 -8 -3 -10 5 -5 15 10 43
-13 34 -27 -3 -6 -1 -7 5 -3 7 4 12 13 12 20 0 24 26 38 39 22 7 -8 19 -12 27
-9 13 5 13 8 -1 23 -21 23 -19 29 13 41 l27 11 -24 9 c-15 6 -21 14 -17 25 3
9 2 12 -5 9 -6 -4 -14 -18 -20 -32 -10 -27 -29 -23 -29 7 0 10 -7 21 -16 24
-8 3 -13 2 -9 -3z"/>
</g>
</svg>
